<svg xmlns="http://www.w3.org/2000/svg" width="1200" height="800" viewBox="0 0 1200 800" fill="none">
  <g opacity="0.9" stroke="#ffffff" stroke-opacity="0.18" stroke-width="1.25">
    <path d="M-40 120 C 160 20, 320 220, 520 120 S 880 20, 1240 120" />
    <path d="M-40 180 C 140 90, 320 260, 540 180 S 900 90, 1240 180" />
    <path d="M-40 240 C 160 150, 340 320, 560 240 S 920 150, 1240 240" />
    <path d="M-40 300 C 140 210, 360 380, 580 300 S 940 210, 1240 300" />
    <path d="M-40 360 C 160 270, 380 440, 600 360 S 960 270, 1240 360" />
    <path d="M-40 420 C 140 330, 400 500, 620 420 S 980 330, 1240 420" />
    <path d="M-40 480 C 160 390, 420 560, 640 480 S 1000 390, 1240 480" />
    <path d="M-40 540 C 140 450, 440 620, 660 540 S 1020 450, 1240 540" />
    <path d="M-40 600 C 160 510, 460 680, 680 600 S 1040 510, 1240 600" />
    <path d="M-40 660 C 140 570, 480 740, 700 660 S 1060 570, 1240 660" />
  </g>
</svg>

